<svg xmlns="http://www.w3.org/2000/svg" width="51" height="32" viewBox="0 0 51 32">
  <metadata><?xpacket begin="﻿" id="W5M0MpCehiHzreSzNTczkc9d"?>
<x:xmpmeta xmlns:x="adobe:ns:meta/" x:xmptk="Adobe XMP Core 5.6-c138 79.159824, 2016/09/14-01:09:01        ">
   <rdf:RDF xmlns:rdf="http://www.w3.org/1999/02/22-rdf-syntax-ns#">
      <rdf:Description rdf:about=""/>
   </rdf:RDF>
</x:xmpmeta>
                                                                                                    
                                                                                                    
                                                                                                    
                                                                                                    
                                                                                                    
                                                                                                    
                                                                                                    
                                                                                                    
                                                                                                    
                                                                                                    
                                                                                                    
                                                                                                    
                                                                                                    
                                                                                                    
                                                                                                    
                                                                                                    
                                                                                                    
                                                                                                    
                                                                                                    
                                                                                                    
                           
<?xpacket end="w"?></metadata>
<defs>
    <style>
      .cls-1 {
        fill: #fff;
        fill-rule: evenodd;
      }
    </style>
  </defs>
  <path id="Behance" class="cls-1" d="M1670.57,6696.3s4.57-.53,4.57-6.13-3.7-8.16-8.7-8.16H1650v31.3h16.44s10.04,0.31,10.04-9.24C1676.48,6704.07,1676.92,6696.3,1670.57,6696.3Zm-5.62-8.85h1.36s2.37,0.12,2.37,3.38-1.56,3.42-3.05,3.42h-8.16v-6.8h7.48Zm1.36,20.4h-8.84v-8.84h8.84s3.47,0.33,3.47,4.67C1669.78,6707.34,1667.62,6707.82,1666.31,6707.85Zm23.78-17.68c-12.15.12-12.23,12.24-12.23,12.24s-0.96,11.55,12.01,11.55c0,0,11.1.78,11.1-8.15h-5.44s-0.18,3.4-5.44,3.4a5.037,5.037,0,0,1-5.43-5.44s16.31,0,16.3-.02C1700.79,6703.06,1702.85,6690.04,1690.09,6690.17Zm-5.43,9.52s0.55-4.76,5.43-4.76,4.76,4.76,4.76,4.76h-10.19Zm11.55-12.24H1683.3v-3.4h12.91v3.4Z" transform="translate(-1650 -6682)"/>
</svg>
