<svg xmlns="http://www.w3.org/2000/svg" width="31" height="28" viewBox="0 0 31 28">
  <metadata><?xpacket begin="﻿" id="W5M0MpCehiHzreSzNTczkc9d"?>
<x:xmpmeta xmlns:x="adobe:ns:meta/" x:xmptk="Adobe XMP Core 5.6-c138 79.159824, 2016/09/14-01:09:01        ">
   <rdf:RDF xmlns:rdf="http://www.w3.org/1999/02/22-rdf-syntax-ns#">
      <rdf:Description rdf:about=""/>
   </rdf:RDF>
</x:xmpmeta>
                                                                                                    
                                                                                                    
                                                                                                    
                                                                                                    
                                                                                                    
                                                                                                    
                                                                                                    
                                                                                                    
                                                                                                    
                                                                                                    
                                                                                                    
                                                                                                    
                                                                                                    
                                                                                                    
                                                                                                    
                                                                                                    
                                                                                                    
                                                                                                    
                                                                                                    
                                                                                                    
                           
<?xpacket end="w"?></metadata>
<defs>
    <style>
      .cls-1 {
        fill: #fff;
        fill-rule: evenodd;
      }
    </style>
  </defs>
  <path id="g_" data-name="g+" class="cls-1" d="M1210.99,6689.5h-4.77l0.01-4.59h-1.44v4.59h-4.77v1.38h4.77v4.13l1.44,0.04-0.01-4.17h4.77v-1.38Zm-15.85,10.61c-0.83-.56-2.41-1.91-2.41-2.7,0-.93.28-1.39,1.76-2.48a5.738,5.738,0,0,0,2.58-4.52c0-2.18-1.02-4.31-2.95-5.01h2.9l1.2-.49s-6.01-.91-8.29-0.91c-4.1,0-7.95,2.94-7.95,6.35,0,3.49,2.79,6.3,6.96,6.3q0.435,0,.84-0.03a3.442,3.442,0,0,0-.46,1.62,3.325,3.325,0,0,0,1.24,2.4c-0.52,0-1.03.01-1.58,0.01-5.08,0-8.98,3.07-8.98,6.25,0,3.13,4.28,5.09,9.36,5.09,5.78,0,8.98-3.12,8.98-6.25,0-2.51-.78-4.01-3.2-5.63h0Zm-4.88-4.34h0c-2.36-.07-4.59-2.5-5-5.44s1.17-5.17,3.52-5.11,4.6,2.42,5,5.36S1192.61,6695.83,1190.26,6695.77Zm-0.92,14.83h0c-3.51,0-6.05-2.11-6.05-4.64,0-2.47,3.15-4.54,6.65-4.5a7.842,7.842,0,0,1,2.28.34c1.9,1.26,3.27,1.97,3.65,3.4a3.34,3.34,0,0,1,.11.89C1195.98,6708.62,1194.27,6710.6,1189.34,6710.6Z" transform="translate(-1180 -6684)"/>
</svg>
