<svg xmlns="http://www.w3.org/2000/svg" width="37.031" height="31" viewBox="0 0 37.031 31">
  <metadata><?xpacket begin="﻿" id="W5M0MpCehiHzreSzNTczkc9d"?>
<x:xmpmeta xmlns:x="adobe:ns:meta/" x:xmptk="Adobe XMP Core 5.6-c138 79.159824, 2016/09/14-01:09:01        ">
   <rdf:RDF xmlns:rdf="http://www.w3.org/1999/02/22-rdf-syntax-ns#">
      <rdf:Description rdf:about=""/>
   </rdf:RDF>
</x:xmpmeta>
                                                                                                    
                                                                                                    
                                                                                                    
                                                                                                    
                                                                                                    
                                                                                                    
                                                                                                    
                                                                                                    
                                                                                                    
                                                                                                    
                                                                                                    
                                                                                                    
                                                                                                    
                                                                                                    
                                                                                                    
                                                                                                    
                                                                                                    
                                                                                                    
                                                                                                    
                                                                                                    
                           
<?xpacket end="w"?></metadata>
<defs>
    <style>
      .cls-1 {
        fill: #fff;
        fill-rule: evenodd;
      }
    </style>
  </defs>
  <path id="Twitter" class="cls-1" d="M738.016,6686.67a14.632,14.632,0,0,1-4.361,1.24,7.846,7.846,0,0,0,3.338-4.33,15.082,15.082,0,0,1-4.822,1.9,7.446,7.446,0,0,0-5.543-2.47,7.708,7.708,0,0,0-7.593,7.82,8.085,8.085,0,0,0,.2,1.78,21.337,21.337,0,0,1-15.649-8.17,7.987,7.987,0,0,0,2.35,10.44,7.333,7.333,0,0,1-3.439-.98v0.1a7.772,7.772,0,0,0,6.091,7.67,7.342,7.342,0,0,1-2,.28,7.478,7.478,0,0,1-1.429-.14,7.65,7.65,0,0,0,7.093,5.43,14.946,14.946,0,0,1-9.431,3.35,15.493,15.493,0,0,1-1.812-.11,21.028,21.028,0,0,0,11.64,3.51c13.966,0,21.6-11.92,21.6-22.25,0-.34-0.008-0.68-0.022-1.01a15.951,15.951,0,0,0,3.789-4.05v-0.01Z" transform="translate(-701 -6683)"/>
</svg>
